<mxfile host="app.diagrams.net" modified="2023-10-10T08:38:19.218Z" agent="Mozilla/5.0 (Windows NT 10.0; Win64; x64) AppleWebKit/537.36 (KHTML, like Gecko) Chrome/117.0.0.0 Safari/537.36" version="22.0.4" etag="u3_s-pmfZvHdJ-T5lp2-" type="github">
  <diagram name="Trang-1" id="6RJr_vbetIpTiFoTB28G">
    <mxGraphModel>
      <root>
        <mxCell id="0" />
        <mxCell id="1" parent="0" />
      </root>
    </mxGraphModel>
  </diagram>
</mxfile>
